# xmcd
#
# Track frame offsets:
#	150
#	2610
#	5417
#	9487
#	12233
#	17488
#	20398
#	22866
#	25727
#	29464
#	33945
#	35930
#	41984
#	46128
#	49206
#	50648
#	57961
#	64064
#	68295
#	73961
#	79502
#	84500
#	90821
#	108790
#	117723
#	146572
#	162169
#	178383
#
# Disc length: 2621 seconds
#
# Revision: 1
# Processed by: cddbd v1.5.2PL0 Copyright (c) Steve Scherf et al.
# Submitted via: audiograbber 1.83.01
#
DISCID=600a3b1c
DTITLE=Tekken - Tekken
DYEAR=2003
DGENRE=Grind
TTITLE0=rock'n'roll 
TTITLE1=I can't fall in love
TTITLE2=noise
TTITLE3=back to the roots
TTITLE4=fucking bastard 
TTITLE5=tough guy (BEASTIE BOYS cover)
TTITLE6=monte moi dessus 
TTITLE7=P.C. shoes
TTITLE8=shit paints
TTITLE9=circle pit
TTITLE10=slave 
TTITLE11=new aryans (REAGAN YOUTH cover)
TTITLE12=spasme
TTITLE13=I see life 
TTITLE14=forever 
TTITLE15=don't fuck me out
TTITLE16=punkrockerdemerde (reggae) (PEKATRALATAK cover)
TTITLE17=that's alright (live) 
TTITLE18=what can I do (live)
TTITLE19=kaos (live) 
TTITLE20=fuck away (live) 
TTITLE21=spasme (live)
TTITLE22=hell on earth (fetish mis) (D.S.R. remix)
TTITLE23=dou iou file alryte (GUITARE BROTHERS remix)
TTITLE24=hell on earth (MOON remix)
TTITLE25=hypop (ultranoise v2.3) (TIN.RP remix) 
TTITLE26=what can I do? (A DIET OF DRY NAILS remix)
TTITLE27=why don't you just mind (the noise you make with your fingers on your 
TTITLE27=guitar) (TIN.RP remix)
EXTD=
EXTT0=
EXTT1=
EXTT2=
EXTT3=
EXTT4=
EXTT5=
EXTT6=
EXTT7=
EXTT8=
EXTT9=
EXTT10=
EXTT11=
EXTT12=
EXTT13=
EXTT14=
EXTT15=
EXTT16=
EXTT17=
EXTT18=
EXTT19=
EXTT20=
EXTT21=
EXTT22=
EXTT23=
EXTT24=
EXTT25=
EXTT26=
EXTT27=
PLAYORDER=
